<svg xmlns="http://www.w3.org/2000/svg" xmlns:xlink="http://www.w3.org/1999/xlink" width="44" height="44" viewBox="0 0 44 44">
  <defs>
    <filter id="Rectangle_17761" x="0" y="0" width="44" height="44" filterUnits="userSpaceOnUse">
      <feOffset input="SourceAlpha"/>
      <feGaussianBlur stdDeviation="1" result="blur"/>
      <feFlood flood-opacity="0.161"/>
      <feComposite operator="in" in2="blur"/>
      <feComposite in="SourceGraphic"/>
    </filter>
  </defs>
  <g id="Group_71450" data-name="Group 71450" transform="translate(3.36 3)">
    <g transform="matrix(1, 0, 0, 1, -3.36, -3)" filter="url(#Rectangle_17761)">
      <rect id="Rectangle_17761-2" data-name="Rectangle 17761" width="38" height="38" rx="11" transform="translate(3 3)" fill="#fff"/>
    </g>
    <path id="Arrow" d="M9.045,19.046.277,10.381a.924.924,0,0,1,0-1.32L9.045.4A1.381,1.381,0,0,1,10.98.4a1.342,1.342,0,0,1,0,1.912L3.48,9.722l7.5,7.412a1.344,1.344,0,0,1,0,1.913,1.381,1.381,0,0,1-1.935,0" transform="translate(13.235 8.784)" fill="#09f"/>
  </g>
</svg>
